<svg xmlns="http://www.w3.org/2000/svg" width="32" height="32" fill="none" viewBox="0 0 32 32"><path fill="#D9D9D9" d="M28.21 27.55c.293 0 .556-.111.787-.333.213-.214.32-.471.32-.774V5.323c0-.302-.107-.56-.32-.773a1.105 1.105 0 0 0-.787-.333H10.423c-.293 0-.555.11-.786.333-.214.213-.32.471-.32.773v3.894h-5.56c-.294 0-.556.106-.787.32-.213.23-.32.493-.32.786v11.12c0 .294.107.556.32.787.231.213.493.32.787.32h5.56v3.893c0 .303.106.56.32.774.23.222.493.333.786.333M9.357 16.763l1.6-5.253h1.826l1.747 8.747h-1.84l-1.04-5.174-1.48 5H8.65l-1.587-5.026-1.04 5.2h-1.92L5.85 11.51h1.827M27.65 5.883v3.334H10.983V5.883m16.667 5v4.16H15.983v-4.16M27.65 16.71v4.173H15.983V16.71m11.667 5.84v3.333H10.983V22.55H27.65Z"/></svg>