<svg xmlns="http://www.w3.org/2000/svg" width="32" height="32" fill="none" viewBox="0 0 32 32"><g clip-path="url(#a)"><g clip-path="url(#b)"><path fill="#D9D9D9" d="M16 0C3.2 0 0 3.2 0 16s3.2 16 16 16 16-3.2 16-16S28.8 0 16 0Z"/></g><path fill="#1E1E1E" fill-rule="evenodd" d="M0 16C0 3.2 3.2 0 16 0s16 3.2 16 16-3.2 16-16 16S0 28.8 0 16Zm29.013 11.333a1.105 1.105 0 0 1-.786.334H10.44c-.293 0-.556-.111-.787-.334a1.054 1.054 0 0 1-.32-.773v-3.893h-5.56c-.293 0-.555-.107-.786-.32a1.129 1.129 0 0 1-.32-.787V10.44c0-.293.106-.556.32-.787.23-.213.493-.32.786-.32h5.56V5.44c0-.302.107-.56.32-.773.231-.223.494-.334.787-.334h17.787c.293 0 .555.111.786.334.214.213.32.47.32.773v21.12c0 .302-.106.56-.32.773Zm-18.04-15.706-1.6 5.253-1.68-5.253H5.867L4.12 20.373h1.92l1.04-5.2L8.667 20.2h1.52l1.48-5 1.04 5.173h1.84L12.8 11.627h-1.827Zm16.694-2.294V6H11v3.333h16.667Zm0 5.827V11H16v4.16h11.667Zm0 5.84v-4.173H16V21h11.667Zm0 5v-3.333H11V26h16.667Z" clip-rule="evenodd"/></g><defs><clipPath id="a"><path fill="#fff" d="M0 0h32v32H0z"/></clipPath><clipPath id="b"><path fill="#fff" d="M0 0h32v32H0z"/></clipPath></defs></svg>